<svg id="Layer_1" data-name="Layer 1" xmlns="http://www.w3.org/2000/svg" viewBox="0 0 924.47 448.02"><defs><style>.cls-1{fill:#231f20;}</style></defs><path class="cls-1" d="M180.13,103.86v.1l.45.56.09-.35ZM129.6,131.22l1,2.12,0,0C130.29,132.62,130,131.92,129.6,131.22ZM171,133.94l0,0,1.86-5C172.32,130.62,171.69,132.28,171,133.94Z" transform="translate(-91.98 -89.15)"/><path class="cls-1" d="M153.38,172.6l0,.07,0,0Z" transform="translate(-91.98 -89.15)"/><path class="cls-1" d="M127.54,126.88h0l.61,1.27C127.93,127.73,127.74,127.3,127.54,126.88Zm46.18-.07c0,.09-.06.19-.1.29l.11-.28Z" transform="translate(-91.98 -89.15)"/><path class="cls-1" d="M144.59,89.15v.1l.45.56.09-.35ZM94.06,116.51l1,2.12,0,0C94.75,117.91,94.41,117.21,94.06,116.51Zm41.44,2.72,0,0,1.86-5C136.78,115.91,136.15,117.57,135.5,119.23Z" transform="translate(-91.98 -89.15)"/><path class="cls-1" d="M117.84,157.89l0,.07,0-.05Z" transform="translate(-91.98 -89.15)"/><path class="cls-1" d="M92,112.17h0l.61,1.27C92.39,113,92.2,112.59,92,112.17Zm46.18-.07c0,.09-.06.19-.1.29l.11-.28Z" transform="translate(-91.98 -89.15)"/><path class="cls-1" d="M326.26,426.93V427h.07Z" transform="translate(-91.98 -89.15)"/><path class="cls-1" d="M729.06,431.07c-69.68,3-133.36,9.95-189.3,20.58-43.47,8.27-75.29,17.42-97.23,25-31.56-36-96.93-52.5-111.89-55.88l-1-.23.3-.6c.12-.23.23-.47.35-.7,5.26-10.65,9.86-21,13.72-30.92.65-1.66,1.28-3.32,1.89-5l.69-1.88c0-.1.07-.2.1-.29,2-5.63,3.57-10.37,4.68-14.15a59.63,59.63,0,0,0,43.24,18.6c1.11,0,2.22,0,3.34-.09l.51,0c11.62-.19,22.49-4.37,32.31-12.41a51.33,51.33,0,0,0,19-42.4c-1.4-24-19.47-36.38-31.23-41.92,31.75-11.31,33.81-31.24,33.72-36.93,0-.78,0-1.56.05-2.33,0-.13,0-.26,0-.39,1.69-28.1-19.95-52.62-48.26-54.66-40.33-2.9-56.46,14.77-57.13,15.53l-.88,1V354.21L321.54,340l-4.22-146.77-7,.2,4.22,147-15.16,12.84-4.49-109-7,.29,4.72,114.42-.2.17.52,2.11a117.41,117.41,0,0,0,7.53,20c.2.42.39.85.59,1.28l.62,1.3c.28.59.57,1.17.85,1.76s.69,1.4,1,2.09c8.73,17.43,19.34,34,19.45,34.18l3.23,5,.06.08.07,0,1,.22c9.63,2.14,75.95,17.86,108,52A255.34,255.34,0,0,0,405.59,492q-2.18,1.14-4.38,2.24c-15,7.38-21.94,14.7-21.13,22.33,1.41,13.15,26.47,19.22,29.33,19.87l.33.06a84,84,0,0,0,10.7.73c12.84,0,22-3.65,27.34-10.92,10.88-14.84,1.17-39.14-.78-43.63,21.76-7.44,52.89-16.3,94.73-24.22,87.36-16.56,240.53-32.32,474.15-13.4l.57-7C912.79,429.64,816.09,427.3,729.06,431.07Zm-376-217.25c3.61-3.26,18.65-14.62,50.51-12.33,24.5,1.77,43.24,23,41.77,47.26,0,.58-.08,1.17-.13,1.77l0,.37,0,.35c.1,1,2.16,23.65-38.4,33.79l-13.59,3.4,13.6,3.4c1.39.34,34.17,8.87,35.94,39.32a44.31,44.31,0,0,1-16.49,36.58c-8.59,7-18,10.68-28.07,10.82l-.71,0a52.68,52.68,0,0,1-44-19.66l-.45-.56ZM327.26,371.5h-.18l-.66,0c-.32,0-.63,0-.94,0-.46,0-.92,0-1.38,0a1.29,1.29,0,0,0-.28,0c-.43,0-.86.06-1.29.1s-.86.09-1.28.15l-.41.07c-.34,0-.68.1-1,.17-.54.09-1.06.2-1.58.32l-1.25.32-.95.27-.64.2c-.61.19-1.2.39-1.78.61l-.84.32-.71.29-.8.34-.14.06-.77.35-.45.21-1,.49c-1,.49-1.85,1-2.62,1.44a115.68,115.68,0,0,1-6-15.49l18.17-15.38,27,15.65c-1,3.55-2.42,8.36-4.53,14.35a28.25,28.25,0,0,0-3-1.82c-.3-.16-.61-.32-.91-.46-.66-.32-1.31-.6-2-.85l-1-.35-.17-.06c-.27-.09-.54-.18-.81-.25s-.65-.19-1-.27l-.07,0c-.3-.08-.61-.15-.91-.21l-.8-.16a24.87,24.87,0,0,0-2.66-.35ZM442.13,522.13c-3.59,4.88-9.92,7.56-18.9,8a54.22,54.22,0,0,1-23.13-4c-6.72-2.76-12.64-6.51-13.06-10.32-.22-2.09,1.24-7.86,19.5-16.38l.27-.15c.2-.11,10.68-6.07,33.45-14.26l.18.07C441.47,487.42,451,510,442.13,522.13Z" transform="translate(-91.98 -89.15)"/><path class="cls-1" d="M591.13,293.48c-9.82,1.13-10.82,1.89-10.82,12.46V352.5c0,16.61-2.65,25.29-11.08,32.84a41.34,41.34,0,0,1-11.7,7.3l-2-3.77a22.28,22.28,0,0,0,12.58-16.61c1.13-6,1.26-13.34,1.26-23.91V305.94c0-10.57-1.13-11.45-11.45-12.46V290h33.22Z" transform="translate(-91.98 -89.15)"/><path class="cls-1" d="M623.72,315c15.73,0,27.43,11.95,27.43,28.19,0,20.38-15.1,30.07-27.43,30.07-17.37,0-27.94-14-27.94-28.06C595.78,324.69,611.76,315,623.72,315Zm-1.51,4.28c-7.68,0-14.6,7.42-14.6,22,0,16,7,27.56,17.37,27.56,7.8,0,14.34-5.66,14.34-22.9C639.32,331.23,633.28,319.28,622.21,319.28Z" transform="translate(-91.98 -89.15)"/><path class="cls-1" d="M685.75,316.26a14.94,14.94,0,0,1,5.54-1.26c13.47,0,24.79,11.7,24.79,26.68,0,17-14.6,31.71-31.08,31.58a46.7,46.7,0,0,1-19.38-4.53V298c0-7.8-.38-8.56-8.43-9.18v-3.28a104,104,0,0,0,18.37-4.27v39.38Zm-10.19,40.9a10.93,10.93,0,0,0,.63,4.4c1.51,3.15,6.42,6.8,12.46,6.8,10.82,0,16.23-9.32,16.23-23.54s-8.68-22.77-19.13-22.77a24.29,24.29,0,0,0-10.19,2.39Z" transform="translate(-91.98 -89.15)"/><path class="cls-1" d="M868.72,293.48c-8.81,1.26-10.07,2.27-13.47,12.59-4.15,12.58-14.22,44.54-21.14,67.07h-4.28c-6.54-19.63-15-43.92-21.52-62.54-7.3,21.64-14.72,43.16-21.26,62.54h-4.16c-6.29-21.65-13.46-45.18-20.26-67.2-3.27-10.19-4.65-11.58-12.83-12.46V290h31.08v3.52c-9.31,1-9.56,2.39-7.8,8.68,4.91,17,9.94,33.73,15.1,51.47,6.92-20,14.47-41.9,20.89-62.54h4c7,21.39,14.09,41.28,21.39,62.67,5.28-16.74,12.46-39.14,15.23-50.09,1.88-7.29.88-8.93-9.82-10.19V290h28.82Z" transform="translate(-91.98 -89.15)"/><path class="cls-1" d="M902.44,373.26a9.2,9.2,0,0,1-5.92-2.39,11.81,11.81,0,0,1-3-5.66c-5,3.4-11.2,8.05-15.1,8.05a15.43,15.43,0,0,1-15.35-15.47c0-6.17,3.4-10.2,10.32-12.59,7.68-2.64,17.11-5.91,19.88-8.18V334.5c0-8.93-4.53-14.09-11.07-14.09a7.31,7.31,0,0,0-5.92,2.9c-1.38,1.76-2.26,4.53-3.39,8.18-.63,2-1.77,2.89-3.65,2.89-2.39,0-5.54-2.52-5.54-5.54,0-1.76,1.64-3.27,4.15-5,3.65-2.64,10.95-7.3,18.12-8.81a17.34,17.34,0,0,1,10.57,3.4c4.41,3.77,6.42,8.05,6.42,14.59v24.29c0,5.79,2.14,7.55,4.41,7.55a10.07,10.07,0,0,0,4.53-1.38l1.25,3.52Zm-9.19-31.83c-2.77,1.38-8.81,4-11.7,5.28-4.78,2.14-7.68,4.53-7.68,9.19,0,6.67,5,9.69,9.06,9.69a16.77,16.77,0,0,0,10.32-4.53Z" transform="translate(-91.98 -89.15)"/><path class="cls-1" d="M947.36,371.75H918.42v-3.52c7.92-.75,8.68-1.38,8.68-9.56V332.49c0-8.3-.5-8.68-7.8-9.56v-3.15A69.09,69.09,0,0,0,937,314.62v13.84c4.41-6.54,9.69-13.46,16-13.46,4.66,0,7.3,2.89,7.3,6A8.44,8.44,0,0,1,956,328a2.48,2.48,0,0,1-3.27-.25c-1.89-1.89-3.4-3.15-5.66-3.15-2.64,0-7.3,3.9-10.07,10.32v23.66c0,8.31.63,8.94,10.32,9.69Z" transform="translate(-91.98 -89.15)"/><path class="cls-1" d="M521.38,367.09c-2.81.49-12.83,2-20.72,4.61v-8.11c-2.4,1.37-5.88,3.12-8.28,4.49-5.35,2.87-9,3.62-10.56,3.62-10.69,0-24.86-10-24.86-27.45s16.31-30.32,34.62-30.32c1.87,0,6.28.25,9.08,1.37V297c0-8-.93-8.24-10.42-9v-3.24c6.68-.88,16-2.62,21-4.25v75.25c0,6.49.94,7.36,5.88,7.61l4.28.25Zm-20.72-41.93c-3.07-4.37-8.82-6.37-14-6.37-6.41,0-17.77,4-17.77,22,0,15.1,10,23.08,18.57,23.21,4.81,0,10-2.25,13.23-4.5Z" transform="translate(-91.98 -89.15)"/><path class="cls-1" d="M482.51,395.7a16.74,16.74,0,0,0-1.43-3.7c-.71-1.21-1.16-1.52-3.62-1.52H473v21.75c0,3.48.36,4,4.6,4.24v1.25h-13v-1.25c4.16-.27,4.51-.71,4.51-4.24V390.48h-4.06c-2.46,0-3.17.26-3.93,1.6a20.32,20.32,0,0,0-1.48,3.62H458.3c.27-2.72.54-5.54.67-8h1c.67,1.07,1.16,1,2.41,1H480.1a2.24,2.24,0,0,0,2.28-1h1.07c0,2.1.18,5.32.4,7.91Z" transform="translate(-91.98 -89.15)"/><path class="cls-1" d="M521.27,413.92c-2.85,3.58-6,4.34-7.41,4.34-5.45,0-8.75-4.47-8.75-9.61a11.46,11.46,0,0,1,2.9-7.81,9.16,9.16,0,0,1,6.65-3.26,7,7,0,0,1,6.84,6.92c0,.89-.18,1.3-.9,1.47-.89.18-6.61.58-11.92.76-.13,6,3.53,8.44,6.7,8.44a7.53,7.53,0,0,0,5.18-2.27Zm-7.68-14.64c-2.05,0-4.06,1.92-4.69,5.53,2.5,0,5,0,7.64-.13.8,0,1.07-.22,1.07-.89A4.15,4.15,0,0,0,513.59,399.28Z" transform="translate(-91.98 -89.15)"/><path class="cls-1" d="M558.16,403.43c-.8-2.59-2-4.38-4.69-4.38A2.72,2.72,0,0,0,550.7,402c0,1.92,1.3,2.81,3.8,4,3.84,1.83,5.76,3.17,5.76,6.12,0,4.11-3.75,6.21-7.28,6.21a11.71,11.71,0,0,1-5.31-1.25c-.23-1.3-.63-3.76-.81-5.23l1.3-.22c.8,2.86,2.36,5.18,5.49,5.18a3,3,0,0,0,3.13-3c0-2-1.21-3-3.58-4.2-3.12-1.52-5.67-2.95-5.67-6.16s2.77-5.76,7-5.76a22.68,22.68,0,0,1,4.29.58c.13,1.07.44,3.88.67,5Z" transform="translate(-91.98 -89.15)"/><path class="cls-1" d="M593.84,417.68a4.52,4.52,0,0,1-1.92.58c-2.86,0-4.38-1.75-4.38-5.32V400h-3.08l-.18-.54,1.21-1.3h2v-3.75c.85-.89,2.15-2.05,3-2.95l.67.09c-.09,1.88-.14,4.47-.14,6.61h5.1a1.42,1.42,0,0,1-.27,1.84h-4.83v11.43c0,3.62,1.43,4.29,2.59,4.29a6.43,6.43,0,0,0,2.73-.72l.4,1.16Z" transform="translate(-91.98 -89.15)"/><path class="cls-1" d="M678.34,389.94c-3.13.36-3.67.85-5.45,3.71-2,3.26-3.67,6.34-5.85,10.31a4.73,4.73,0,0,0-.67,2.64v5.49c0,3.71.4,4,4.55,4.38v1.25H658.1v-1.25c4.07-.54,4.38-.63,4.38-4.38v-5.76a4.62,4.62,0,0,0-.89-2.59c-1.57-2.9-3.08-5.72-5.5-9.91-1.74-3-2.18-3.58-5.22-3.89v-1.25h11v1.25c-3.22.45-3,1-2.24,2.55,1.88,3.44,4,7.46,5.85,10.8,1.61-3,4.16-7.86,5.41-10.31,1-2.24.89-2.68-2.64-3v-1.25h10.1Z" transform="translate(-91.98 -89.15)"/><path class="cls-1" d="M706.51,397.58a9.6,9.6,0,0,1,9.74,10c0,7.24-5.36,10.68-9.74,10.68a9.81,9.81,0,0,1-9.91-10C696.6,401,702.27,397.58,706.51,397.58ZM706,399.1c-2.73,0-5.18,2.63-5.18,7.81,0,5.67,2.5,9.78,6.16,9.78,2.77,0,5.09-2,5.09-8.13C712.05,403.34,709.91,399.1,706,399.1Z" transform="translate(-91.98 -89.15)"/><path class="cls-1" d="M763.36,416.69a52.88,52.88,0,0,0-6.83,1.57v-3.44c-2.41,2-4.38,3.44-6.83,3.44-3,0-5.59-1.83-5.59-6.7v-8.67c0-2.41-.35-2.68-1.47-2.9l-1.25-.22v-1.16a60.35,60.35,0,0,0,6.39-.81c-.14,1.43-.14,3.57-.14,6.52v6.08c0,3.93,2.06,5,4.07,5a7,7,0,0,0,4.82-2.14V402.89c0-2.41-.54-2.72-2-2.94l-1.43-.18v-1.16a64,64,0,0,0,7-.81v15c0,2.24.36,2.55,2.05,2.64l1.25,0Z" transform="translate(-91.98 -89.15)"/><path class="cls-1" d="M798.2,417.72H787.92v-1.25c2.82-.27,3.08-.49,3.08-3.39v-9.29c0-3-.17-3.09-2.76-3.4v-1.11a24.83,24.83,0,0,0,6.29-1.84v4.92c1.57-2.33,3.44-4.78,5.68-4.78a2.31,2.31,0,0,1,2.59,2.14,3,3,0,0,1-1.52,2.46.88.88,0,0,1-1.16-.09,2.83,2.83,0,0,0-2-1.12c-.94,0-2.59,1.39-3.58,3.66V413c0,3,.23,3.17,3.67,3.44Z" transform="translate(-91.98 -89.15)"/><path class="cls-1" d="M838.25,403.43c-.8-2.59-2-4.38-4.69-4.38a2.72,2.72,0,0,0-2.77,2.91c0,1.92,1.3,2.81,3.8,4,3.84,1.83,5.76,3.17,5.76,6.12,0,4.11-3.75,6.21-7.28,6.21a11.75,11.75,0,0,1-5.31-1.25c-.22-1.3-.63-3.76-.81-5.23l1.3-.22c.8,2.86,2.37,5.18,5.49,5.18a3,3,0,0,0,3.13-3c0-2-1.21-3-3.57-4.2-3.13-1.52-5.68-2.95-5.68-6.16s2.77-5.76,7-5.76a22.43,22.43,0,0,1,4.29.58c.13,1.07.45,3.88.67,5Z" transform="translate(-91.98 -89.15)"/><path class="cls-1" d="M882.15,413.92c-2.86,3.58-6,4.34-7.41,4.34-5.45,0-8.75-4.47-8.75-9.61a11.46,11.46,0,0,1,2.9-7.81,9.14,9.14,0,0,1,6.65-3.26,7,7,0,0,1,6.84,6.92c0,.89-.18,1.3-.9,1.47-.89.18-6.61.58-11.92.76-.14,6,3.53,8.44,6.7,8.44a7.53,7.53,0,0,0,5.18-2.27Zm-7.68-14.64c-2.05,0-4.06,1.92-4.69,5.53,2.5,0,5,0,7.64-.13.8,0,1.07-.22,1.07-.89A4.15,4.15,0,0,0,874.47,399.28Z" transform="translate(-91.98 -89.15)"/><path class="cls-1" d="M906.71,417.72v-1.25c2.86-.27,3.22-.49,3.22-3.44V391.64c0-2.73-.23-3-3.08-3.35v-1.16a32.19,32.19,0,0,0,6.61-1.52V413c0,3,.26,3.17,3.17,3.44v1.25Z" transform="translate(-91.98 -89.15)"/><path class="cls-1" d="M944.4,398.11v-1.2a11.48,11.48,0,0,1,3.93-8.93,9.22,9.22,0,0,1,5-2.37A4.94,4.94,0,0,1,957,387a1.4,1.4,0,0,1,.27,1.56,3.48,3.48,0,0,1-1.07,1.43,1,1,0,0,1-1.29-.09,5.83,5.83,0,0,0-3.62-1.83c-3.31,0-3.31,4.51-3.31,7.9v2.1h4.74a1.73,1.73,0,0,1-.45,1.84h-4.29v12.9c0,3.22.49,3.26,3.84,3.62v1.25H941.28v-1.25c2.81-.27,3.12-.45,3.12-3.35V400h-3.17l-.18-.5,1-1.34Z" transform="translate(-91.98 -89.15)"/></svg>