<?xml version="1.0" encoding="UTF-8"?>
<svg xmlns="http://www.w3.org/2000/svg" xmlns:xlink="http://www.w3.org/1999/xlink" width="25px" height="25px" viewBox="0 0 25 25" version="1.1">
<g id="surface1">
<path style=" stroke:none;fill-rule:nonzero;fill:rgb(13.72549%,12.156863%,12.54902%);fill-opacity:1;" d="M 15.332031 21.347656 C 15.449219 21.269531 15.5625 21.199219 15.667969 21.121094 C 16.375 20.628906 16.570312 19.984375 16.214844 19.1875 C 15.925781 18.566406 15.59375 18 15.347656 17.359375 C 14.898438 16.257812 14.671875 15.109375 14.957031 13.910156 C 15.339844 12.265625 16.890625 11.078125 18.457031 11.21875 C 20.179688 11.363281 21.539062 12.777344 21.648438 14.542969 C 21.738281 16.027344 21.246094 17.335938 20.574219 18.601562 C 20.421875 18.867188 20.292969 19.144531 20.1875 19.433594 C 19.988281 19.992188 20.171875 20.621094 20.644531 20.972656 L 20.90625 21.1875 C 19.914062 22.410156 16.566406 22.511719 15.332031 21.347656 Z M 15.332031 21.347656 "/>
<path style=" stroke:none;fill-rule:nonzero;fill:rgb(13.72549%,12.156863%,12.54902%);fill-opacity:1;" d="M 14.339844 21.234375 C 14.089844 21.316406 13.832031 21.386719 13.585938 21.484375 C 13.03125 21.707031 12.480469 21.949219 11.929688 22.175781 C 11.828125 22.222656 11.714844 22.25 11.605469 22.253906 C 10.027344 22.253906 8.449219 22.253906 6.875 22.253906 C 6.253906 22.253906 5.929688 21.90625 5.929688 21.257812 L 5.929688 4.601562 C 5.929688 3.960938 6.253906 3.621094 6.882812 3.617188 C 7.941406 3.617188 8.996094 3.617188 10.054688 3.617188 C 10.207031 3.628906 10.351562 3.546875 10.421875 3.410156 C 10.542969 3.234375 10.726562 3.113281 10.929688 3.078125 C 12.320312 3.050781 13.710938 3.078125 15.101562 3.078125 C 15.335938 3.054688 15.554688 3.191406 15.644531 3.414062 C 15.6875 3.558594 15.832031 3.644531 15.976562 3.617188 C 16.828125 3.617188 17.675781 3.617188 18.527344 3.617188 C 19.324219 3.617188 19.601562 3.894531 19.601562 4.691406 L 19.601562 10.9375 C 19.25 10.878906 18.933594 10.84375 18.625 10.761719 C 18.5625 10.761719 18.5 10.570312 18.5 10.464844 C 18.5 9.019531 18.5 7.578125 18.5 6.132812 C 18.5 5.773438 18.5 5.410156 18.5 5.050781 C 18.5 4.847656 18.425781 4.753906 18.210938 4.753906 C 17.464844 4.753906 16.71875 4.753906 15.96875 4.769531 C 15.839844 4.789062 15.722656 4.863281 15.644531 4.972656 C 15.527344 5.175781 15.3125 5.300781 15.082031 5.296875 C 13.699219 5.296875 12.320312 5.296875 10.941406 5.296875 C 10.710938 5.304688 10.492188 5.175781 10.386719 4.960938 C 10.320312 4.863281 10.214844 4.792969 10.097656 4.773438 C 9.175781 4.757812 8.253906 4.773438 7.328125 4.757812 C 7.140625 4.757812 7.058594 4.828125 7.074219 5.023438 C 7.074219 5.085938 7.074219 5.148438 7.074219 5.210938 L 7.074219 20.605469 C 7.074219 21.09375 7.105469 21.125 7.585938 21.128906 L 14.328125 21.128906 Z M 14.675781 4.453125 C 14.777344 4.292969 14.882812 4.203125 14.871094 4.128906 C 14.859375 4.054688 14.738281 3.980469 14.664062 3.910156 C 14.597656 3.984375 14.484375 4.054688 14.476562 4.136719 C 14.472656 4.21875 14.574219 4.300781 14.675781 4.453125 Z M 11.695312 4.15625 C 11.542969 4.042969 11.453125 3.925781 11.382812 3.9375 C 11.285156 3.976562 11.214844 4.058594 11.191406 4.160156 C 11.191406 4.214844 11.308594 4.347656 11.375 4.351562 C 11.441406 4.355469 11.539062 4.242188 11.695312 4.15625 Z M 11.695312 4.15625 "/>
<path style=" stroke:none;fill-rule:nonzero;fill:rgb(13.72549%,12.156863%,12.54902%);fill-opacity:1;" d="M 11.621094 24.992188 C 11.316406 23.925781 11.824219 22.785156 12.8125 22.324219 C 13.394531 22.082031 13.972656 21.878906 14.550781 21.683594 C 14.671875 21.671875 14.792969 21.703125 14.890625 21.773438 C 15.730469 22.285156 16.664062 22.613281 17.632812 22.746094 C 18.585938 22.816406 19.542969 22.621094 20.398438 22.179688 C 20.722656 22.039062 21.015625 21.832031 21.332031 21.671875 C 21.425781 21.621094 21.539062 21.605469 21.644531 21.628906 C 22.222656 21.808594 22.804688 22.007812 23.382812 22.199219 C 24.65625 22.625 24.917969 23.40625 24.910156 24.8125 C 24.910156 24.871094 24.8125 24.949219 24.746094 24.984375 C 24.675781 25 24.601562 25 24.53125 24.984375 L 11.621094 24.984375 Z M 11.621094 24.992188 "/>
<path style=" stroke:none;fill-rule:nonzero;fill:rgb(13.72549%,12.156863%,12.54902%);fill-opacity:1;" d="M 5.457031 10.914062 L 3.757812 10.195312 L 4.136719 9.9375 C 4.90625 9.421875 5.089844 8.75 4.683594 7.859375 C 4.394531 7.238281 4.054688 6.640625 3.800781 6.003906 C 3.320312 4.921875 3.21875 3.703125 3.511719 2.550781 C 3.925781 1.042969 5.269531 0 6.800781 0 C 8.324219 0.0390625 9.640625 1.097656 10.042969 2.601562 C 10.160156 3.046875 10.097656 3.132812 9.648438 3.132812 C 8.738281 3.132812 7.828125 3.132812 6.914062 3.132812 C 6 3.132812 5.464844 3.660156 5.464844 4.617188 L 5.464844 10.914062 Z M 5.457031 10.914062 "/>
<path style=" stroke:none;fill-rule:nonzero;fill:rgb(13.72549%,12.156863%,12.54902%);fill-opacity:1;" d="M 2.769531 13.519531 C 1.972656 13.519531 1.175781 13.519531 0.378906 13.519531 C 0.148438 13.519531 0.0585938 13.4375 0.0898438 13.203125 C 0.121094 12.90625 0.125 12.632812 0.171875 12.351562 C 0.242188 11.734375 0.648438 11.214844 1.21875 11.011719 C 1.828125 10.789062 2.460938 10.621094 3.085938 10.441406 C 3.175781 10.433594 3.269531 10.453125 3.347656 10.496094 C 3.972656 10.769531 4.59375 11.058594 5.226562 11.3125 C 5.382812 11.34375 5.488281 11.496094 5.460938 11.65625 C 5.460938 12.175781 5.460938 12.695312 5.460938 13.214844 C 5.460938 13.449219 5.390625 13.527344 5.171875 13.511719 C 4.367188 13.511719 3.554688 13.519531 2.769531 13.519531 Z M 2.769531 13.519531 "/>
<path style=" stroke:none;fill-rule:nonzero;fill:rgb(13.72549%,12.156863%,12.54902%);fill-opacity:1;" d="M 11.054688 16.269531 L 11.054688 18.449219 C 11.054688 19.25 11.054688 19.25 10.273438 19.25 C 9.640625 19.25 9.007812 19.25 8.378906 19.25 C 8.160156 19.25 8.085938 19.171875 8.085938 18.953125 C 8.085938 18.117188 8.085938 17.277344 8.085938 16.441406 C 8.085938 16.355469 8.195312 16.210938 8.253906 16.207031 C 9.144531 16.207031 10.035156 16.207031 10.925781 16.207031 C 10.964844 16.21875 10.996094 16.242188 11.054688 16.269531 Z M 9.570312 16.78125 C 9.34375 16.78125 9.113281 16.78125 8.886719 16.78125 C 8.714844 16.78125 8.640625 16.847656 8.644531 17.023438 C 8.644531 17.492188 8.644531 17.960938 8.644531 18.425781 C 8.644531 18.605469 8.71875 18.667969 8.886719 18.664062 C 9.335938 18.664062 9.78125 18.664062 10.226562 18.664062 C 10.414062 18.664062 10.484375 18.597656 10.480469 18.40625 C 10.480469 17.949219 10.480469 17.492188 10.480469 17.035156 C 10.480469 16.835938 10.402344 16.773438 10.222656 16.777344 C 10.042969 16.785156 9.785156 16.78125 9.570312 16.78125 Z M 9.570312 16.78125 "/>
<path style=" stroke:none;fill-rule:nonzero;fill:rgb(13.72549%,12.156863%,12.54902%);fill-opacity:1;" d="M 8.097656 11.550781 L 8.707031 11.550781 C 9.378906 11.550781 10.054688 11.550781 10.738281 11.550781 C 10.960938 11.550781 11.074219 11.597656 11.066406 11.871094 C 11.054688 12.675781 11.066406 13.484375 11.066406 14.289062 C 11.066406 14.515625 11.011719 14.613281 10.777344 14.609375 C 9.980469 14.59375 9.179688 14.609375 8.382812 14.59375 C 8.292969 14.59375 8.125 14.488281 8.121094 14.429688 C 8.09375 13.484375 8.097656 12.542969 8.097656 11.550781 Z M 8.644531 13.089844 C 8.644531 13.3125 8.644531 13.535156 8.644531 13.757812 C 8.644531 13.980469 8.714844 14.019531 8.898438 14.015625 C 9.335938 14.015625 9.769531 14.015625 10.207031 14.015625 C 10.402344 14.015625 10.496094 13.957031 10.496094 13.746094 C 10.496094 13.300781 10.496094 12.855469 10.496094 12.40625 C 10.496094 12.199219 10.425781 12.125 10.226562 12.128906 C 9.800781 12.128906 9.375 12.128906 8.953125 12.128906 C 8.742188 12.128906 8.644531 12.191406 8.660156 12.425781 C 8.679688 12.660156 8.644531 12.867188 8.644531 13.089844 Z M 8.644531 13.089844 "/>
<path style=" stroke:none;fill-rule:nonzero;fill:rgb(13.72549%,12.156863%,12.54902%);fill-opacity:1;" d="M 9.550781 9.949219 C 9.15625 9.949219 8.761719 9.949219 8.367188 9.949219 C 8.175781 9.949219 8.078125 9.890625 8.078125 9.679688 C 8.078125 8.855469 8.078125 8.027344 8.078125 7.199219 C 8.078125 6.96875 8.171875 6.902344 8.367188 6.902344 C 9.167969 6.902344 9.964844 6.902344 10.761719 6.902344 C 10.953125 6.902344 11.050781 6.960938 11.035156 7.171875 C 11.035156 8 11.035156 8.828125 11.035156 9.65625 C 11.035156 9.886719 10.941406 9.953125 10.746094 9.953125 C 10.359375 9.941406 9.953125 9.949219 9.550781 9.949219 Z M 9.550781 9.355469 C 9.769531 9.355469 9.988281 9.355469 10.203125 9.355469 C 10.421875 9.355469 10.492188 9.304688 10.492188 9.089844 C 10.492188 8.644531 10.492188 8.199219 10.492188 7.753906 C 10.492188 7.5625 10.414062 7.488281 10.234375 7.492188 C 9.792969 7.492188 9.347656 7.492188 8.902344 7.492188 C 8.707031 7.492188 8.652344 7.585938 8.65625 7.765625 C 8.65625 8.210938 8.65625 8.65625 8.65625 9.101562 C 8.65625 9.292969 8.726562 9.363281 8.914062 9.355469 C 9.097656 9.347656 9.335938 9.359375 9.550781 9.359375 Z M 9.550781 9.355469 "/>
<path style=" stroke:none;fill-rule:nonzero;fill:rgb(13.72549%,12.156863%,12.54902%);fill-opacity:1;" d="M 11.863281 8.015625 C 11.734375 7.507812 11.777344 7.445312 12.253906 7.445312 C 13.882812 7.445312 15.507812 7.445312 17.136719 7.445312 C 17.425781 7.445312 17.496094 7.550781 17.476562 7.816406 C 17.476562 7.964844 17.4375 8.058594 17.265625 8.054688 C 15.480469 8.054688 13.699219 8.054688 11.917969 8.054688 C 11.898438 8.035156 11.878906 8.015625 11.863281 8.015625 Z M 11.863281 8.015625 "/>
<path style=" stroke:none;fill-rule:nonzero;fill:rgb(13.72549%,12.156863%,12.54902%);fill-opacity:1;" d="M 16.625 9.113281 L 11.863281 9.113281 C 11.738281 8.59375 11.777344 8.519531 12.257812 8.519531 L 16.210938 8.519531 C 16.710938 8.53125 16.722656 8.546875 16.625 9.113281 Z M 16.625 9.113281 "/>
<path style=" stroke:none;fill-rule:nonzero;fill:rgb(13.72549%,12.156863%,12.54902%);fill-opacity:1;" d="M 15.839844 11.574219 C 15.601562 11.976562 15.167969 12.203125 14.710938 12.167969 C 13.863281 12.121094 13.011719 12.167969 12.160156 12.167969 C 11.953125 12.167969 11.804688 12.167969 11.800781 11.871094 C 11.796875 11.574219 11.933594 11.546875 12.164062 11.546875 C 13.285156 11.546875 14.40625 11.546875 15.523438 11.546875 C 15.613281 11.542969 15.703125 11.558594 15.839844 11.574219 Z M 15.839844 11.574219 "/>
<path style=" stroke:none;fill-rule:nonzero;fill:rgb(13.72549%,12.156863%,12.54902%);fill-opacity:1;" d="M 11.851562 18.402344 C 11.753906 17.855469 11.773438 17.828125 12.277344 17.828125 L 14.332031 17.828125 C 14.839844 17.828125 14.839844 17.828125 14.765625 18.402344 Z M 11.851562 18.402344 "/>
<path style=" stroke:none;fill-rule:nonzero;fill:rgb(13.72549%,12.156863%,12.54902%);fill-opacity:1;" d="M 14.863281 12.671875 C 14.734375 13.214844 14.695312 13.253906 14.214844 13.253906 L 12.253906 13.253906 C 11.777344 13.253906 11.730469 13.179688 11.863281 12.671875 Z M 14.863281 12.671875 "/>
<path style=" stroke:none;fill-rule:nonzero;fill:rgb(13.72549%,12.156863%,12.54902%);fill-opacity:1;" d="M 14.757812 17.34375 L 12.253906 17.34375 C 11.777344 17.34375 11.734375 17.28125 11.875 16.75 L 14.195312 16.75 C 14.667969 16.742188 14.699219 16.769531 14.757812 17.34375 Z M 14.757812 17.34375 "/>
<path style=" stroke:none;fill-rule:nonzero;fill:rgb(13.72549%,12.156863%,12.54902%);fill-opacity:1;" d="M 14.449219 13.773438 C 14.417969 14.34375 14.417969 14.34375 13.914062 14.34375 L 12.273438 14.34375 C 11.773438 14.34375 11.753906 14.316406 11.851562 13.773438 Z M 14.449219 13.773438 "/>
</g>
</svg>
