<?xml version="1.0" encoding="UTF-8"?>
<svg xmlns="http://www.w3.org/2000/svg" xmlns:xlink="http://www.w3.org/1999/xlink" width="25px" height="25px" viewBox="0 0 25 25" version="1.1">
<g id="surface1">
<path style=" stroke:none;fill-rule:nonzero;fill:rgb(13.72549%,12.156863%,12.54902%);fill-opacity:1;" d="M 19.101562 1.5625 L 15.976562 1.5625 C 15.976562 0.691406 15.050781 -0.015625 13.910156 -0.015625 C 12.765625 -0.015625 11.839844 0.691406 11.839844 1.5625 L 8.699219 1.5625 C 8.445312 1.5625 8.207031 1.636719 8.027344 1.773438 C 7.851562 1.910156 7.75 2.09375 7.753906 2.285156 L 7.753906 4.613281 L 20.074219 4.613281 L 20.074219 2.296875 C 20.078125 2.101562 19.976562 1.910156 19.792969 1.773438 C 19.609375 1.632812 19.359375 1.558594 19.101562 1.5625 Z M 13.902344 1.09375 C 14.160156 1.09375 14.394531 1.210938 14.492188 1.394531 C 14.585938 1.578125 14.53125 1.789062 14.34375 1.925781 C 14.15625 2.0625 13.882812 2.097656 13.644531 2.019531 C 13.410156 1.9375 13.257812 1.757812 13.269531 1.5625 C 13.277344 1.300781 13.558594 1.089844 13.902344 1.09375 Z M 13.902344 1.09375 "/>
<path style=" stroke:none;fill-rule:nonzero;fill:rgb(13.72549%,12.156863%,12.54902%);fill-opacity:1;" d="M 15.878906 6.867188 L 13.058594 6.867188 C 12.828125 6.851562 12.652344 6.703125 12.652344 6.527344 C 12.652344 6.351562 12.828125 6.203125 13.058594 6.183594 L 15.878906 6.183594 C 16.050781 6.171875 16.214844 6.234375 16.304688 6.347656 C 16.394531 6.457031 16.394531 6.597656 16.304688 6.707031 C 16.214844 6.820312 16.050781 6.882812 15.878906 6.867188 Z M 15.878906 6.867188 "/>
<path style=" stroke:none;fill-rule:nonzero;fill:rgb(13.72549%,12.156863%,12.54902%);fill-opacity:1;" d="M 21.441406 8.019531 L 13.058594 8.019531 C 12.8125 8.019531 12.613281 7.867188 12.613281 7.675781 C 12.613281 7.488281 12.8125 7.335938 13.058594 7.335938 L 21.441406 7.335938 C 21.6875 7.335938 21.886719 7.488281 21.886719 7.675781 C 21.886719 7.867188 21.6875 8.019531 21.441406 8.019531 Z M 21.441406 8.019531 "/>
<path style=" stroke:none;fill-rule:nonzero;fill:rgb(13.72549%,12.156863%,12.54902%);fill-opacity:1;" d="M 21.441406 9.054688 L 13.058594 9.054688 C 12.828125 9.039062 12.652344 8.890625 12.652344 8.710938 C 12.652344 8.535156 12.828125 8.386719 13.058594 8.371094 L 21.441406 8.371094 C 21.613281 8.359375 21.777344 8.421875 21.867188 8.53125 C 21.957031 8.640625 21.957031 8.78125 21.867188 8.894531 C 21.777344 9.003906 21.613281 9.066406 21.441406 9.054688 Z M 21.441406 9.054688 "/>
<path style=" stroke:none;fill-rule:nonzero;fill:rgb(13.72549%,12.156863%,12.54902%);fill-opacity:1;" d="M 21.441406 10.085938 L 13.058594 10.085938 C 12.828125 10.066406 12.652344 9.921875 12.652344 9.742188 C 12.652344 9.566406 12.828125 9.417969 13.058594 9.402344 L 21.441406 9.402344 C 21.613281 9.390625 21.777344 9.449219 21.867188 9.5625 C 21.957031 9.671875 21.957031 9.8125 21.867188 9.925781 C 21.777344 10.035156 21.613281 10.097656 21.441406 10.085938 Z M 21.441406 10.085938 "/>
<path style=" stroke:none;fill-rule:nonzero;fill:rgb(13.72549%,12.156863%,12.54902%);fill-opacity:1;" d="M 16.332031 12.71875 C 16.332031 12.910156 16.128906 13.0625 15.878906 13.0625 L 15.335938 13.0625 C 15.257812 12.828125 15.152344 12.601562 15.019531 12.378906 L 15.878906 12.378906 C 16 12.378906 16.113281 12.414062 16.199219 12.476562 C 16.28125 12.542969 16.332031 12.628906 16.332031 12.71875 Z M 16.332031 12.71875 "/>
<path style=" stroke:none;fill-rule:nonzero;fill:rgb(13.72549%,12.156863%,12.54902%);fill-opacity:1;" d="M 21.890625 13.878906 C 21.890625 13.96875 21.84375 14.054688 21.757812 14.121094 C 21.675781 14.183594 21.558594 14.21875 21.441406 14.21875 L 15.570312 14.21875 C 15.5625 13.988281 15.539062 13.761719 15.492188 13.535156 L 21.441406 13.535156 C 21.691406 13.535156 21.890625 13.6875 21.890625 13.878906 Z M 21.890625 13.878906 "/>
<path style=" stroke:none;fill-rule:nonzero;fill:rgb(13.72549%,12.156863%,12.54902%);fill-opacity:1;" d="M 21.890625 14.910156 C 21.890625 15.097656 21.691406 15.253906 21.441406 15.253906 L 15.425781 15.253906 C 15.488281 15.027344 15.523438 14.796875 15.539062 14.570312 L 21.441406 14.570312 C 21.558594 14.566406 21.675781 14.601562 21.757812 14.667969 C 21.84375 14.730469 21.890625 14.816406 21.890625 14.910156 Z M 21.890625 14.910156 "/>
<path style=" stroke:none;fill-rule:nonzero;fill:rgb(13.72549%,12.156863%,12.54902%);fill-opacity:1;" d="M 21.890625 15.941406 C 21.890625 16.03125 21.84375 16.121094 21.757812 16.183594 C 21.675781 16.246094 21.558594 16.285156 21.441406 16.28125 L 14.992188 16.28125 C 15.121094 16.066406 15.230469 15.839844 15.316406 15.613281 L 21.457031 15.613281 C 21.695312 15.617188 21.886719 15.761719 21.890625 15.941406 Z M 21.890625 15.941406 "/>
<path style=" stroke:none;fill-rule:nonzero;fill:rgb(13.72549%,12.156863%,12.54902%);fill-opacity:1;" d="M 16.203125 19.160156 C 16.117188 19.226562 16 19.261719 15.878906 19.261719 L 13.058594 19.261719 C 12.8125 19.261719 12.613281 19.109375 12.613281 18.921875 C 12.613281 18.734375 12.8125 18.582031 13.058594 18.582031 L 15.570312 18.582031 C 15.71875 18.808594 15.9375 19.007812 16.203125 19.160156 Z M 16.203125 19.160156 "/>
<path style=" stroke:none;fill-rule:nonzero;fill:rgb(13.72549%,12.156863%,12.54902%);fill-opacity:1;" d="M 21.441406 20.417969 L 13.058594 20.417969 C 12.828125 20.402344 12.652344 20.253906 12.652344 20.078125 C 12.652344 19.902344 12.828125 19.753906 13.058594 19.734375 L 21.441406 19.734375 C 21.613281 19.722656 21.777344 19.785156 21.867188 19.898438 C 21.957031 20.007812 21.957031 20.148438 21.867188 20.257812 C 21.777344 20.371094 21.613281 20.433594 21.441406 20.417969 Z M 21.441406 20.417969 "/>
<path style=" stroke:none;fill-rule:nonzero;fill:rgb(13.72549%,12.156863%,12.54902%);fill-opacity:1;" d="M 21.441406 21.449219 L 13.058594 21.449219 C 12.8125 21.449219 12.613281 21.296875 12.613281 21.109375 C 12.613281 20.921875 12.8125 20.769531 13.058594 20.769531 L 21.441406 20.769531 C 21.6875 20.769531 21.886719 20.921875 21.886719 21.109375 C 21.886719 21.296875 21.6875 21.449219 21.441406 21.449219 Z M 21.441406 21.449219 "/>
<path style=" stroke:none;fill-rule:nonzero;fill:rgb(13.72549%,12.156863%,12.54902%);fill-opacity:1;" d="M 21.441406 22.480469 L 13.058594 22.480469 C 12.828125 22.464844 12.652344 22.316406 12.652344 22.136719 C 12.652344 21.960938 12.828125 21.8125 13.058594 21.796875 L 21.441406 21.796875 C 21.613281 21.785156 21.777344 21.847656 21.867188 21.957031 C 21.957031 22.066406 21.957031 22.207031 21.867188 22.320312 C 21.777344 22.429688 21.613281 22.492188 21.441406 22.480469 Z M 21.441406 22.480469 "/>
<path style=" stroke:none;fill-rule:nonzero;fill:rgb(13.72549%,12.156863%,12.54902%);fill-opacity:1;" d="M 9.253906 11.628906 C 7.316406 11.628906 5.746094 12.828125 5.746094 14.308594 C 5.746094 15.785156 7.320312 16.984375 9.257812 16.980469 C 11.195312 16.980469 12.765625 15.78125 12.765625 14.304688 C 12.765625 13.59375 12.394531 12.914062 11.734375 12.414062 C 11.078125 11.910156 10.183594 11.628906 9.253906 11.628906 Z M 9.253906 16.3125 C 9.03125 16.472656 8.679688 16.472656 8.457031 16.3125 C 8.335938 16.234375 8.269531 16.121094 8.269531 16 C 8.269531 15.882812 8.335938 15.769531 8.457031 15.6875 C 8.566406 15.609375 8.714844 15.570312 8.867188 15.570312 C 9.019531 15.566406 9.164062 15.609375 9.273438 15.6875 C 9.390625 15.769531 9.457031 15.882812 9.460938 16 C 9.453125 16.125 9.375 16.238281 9.242188 16.308594 Z M 10.722656 13.726562 C 10.617188 13.867188 10.484375 13.996094 10.332031 14.109375 C 10.191406 14.210938 9.992188 14.339844 9.734375 14.496094 C 9.546875 14.601562 9.382812 14.726562 9.25 14.871094 C 9.183594 14.953125 9.144531 15.042969 9.136719 15.140625 C 9.136719 15.484375 8.878906 15.519531 8.769531 15.519531 C 8.644531 15.523438 8.527344 15.472656 8.472656 15.386719 C 8.425781 15.285156 8.40625 15.179688 8.417969 15.074219 C 8.421875 14.910156 8.476562 14.75 8.578125 14.605469 C 8.734375 14.398438 8.933594 14.210938 9.167969 14.050781 C 9.378906 13.914062 9.554688 13.746094 9.683594 13.558594 C 9.753906 13.433594 9.785156 13.300781 9.789062 13.167969 C 9.789062 13.019531 9.726562 12.878906 9.605469 12.765625 C 9.507812 12.660156 9.34375 12.601562 9.171875 12.609375 C 8.96875 12.597656 8.769531 12.648438 8.613281 12.746094 C 8.488281 12.835938 8.417969 12.960938 8.421875 13.089844 C 8.417969 13.15625 8.4375 13.21875 8.480469 13.277344 C 8.515625 13.320312 8.539062 13.320312 8.554688 13.320312 C 8.695312 13.285156 8.847656 13.308594 8.964844 13.378906 C 9.0625 13.425781 9.121094 13.507812 9.125 13.597656 C 9.125 13.71875 9.042969 13.832031 8.90625 13.894531 C 8.78125 13.949219 8.640625 13.980469 8.496094 13.976562 C 8.257812 13.976562 8.03125 13.890625 7.882812 13.746094 C 7.707031 13.574219 7.621094 13.355469 7.636719 13.136719 C 7.632812 12.855469 7.78125 12.578125 8.046875 12.378906 C 8.339844 12.167969 8.734375 12.054688 9.140625 12.066406 C 9.578125 12.058594 10.003906 12.167969 10.339844 12.378906 C 10.671875 12.582031 10.863281 12.886719 10.859375 13.210938 C 10.863281 13.386719 10.8125 13.5625 10.707031 13.71875 Z M 10.722656 13.726562 "/>
<path style=" stroke:none;fill-rule:nonzero;fill:rgb(13.72549%,12.156863%,12.54902%);fill-opacity:1;" d="M 8.582031 5.96875 C 7.683594 5.96875 6.875 6.378906 6.53125 7.011719 C 6.183594 7.644531 6.375 8.375 7.011719 8.859375 C 7.644531 9.34375 8.601562 9.488281 9.429688 9.226562 C 10.261719 8.960938 10.800781 8.34375 10.796875 7.660156 C 10.796875 6.726562 9.808594 5.96875 8.582031 5.96875 Z M 8.582031 8.929688 C 8.441406 9.027344 8.222656 9.027344 8.078125 8.929688 C 8.003906 8.882812 7.960938 8.816406 7.953125 8.742188 C 7.953125 8.667969 7.996094 8.597656 8.066406 8.546875 C 8.210938 8.449219 8.425781 8.449219 8.566406 8.546875 C 8.644531 8.601562 8.6875 8.675781 8.679688 8.753906 C 8.679688 8.824219 8.636719 8.886719 8.570312 8.929688 Z M 9.507812 7.289062 C 9.445312 7.378906 9.363281 7.460938 9.265625 7.535156 C 9.175781 7.597656 9.054688 7.679688 8.886719 7.78125 C 8.765625 7.84375 8.664062 7.925781 8.582031 8.019531 C 8.539062 8.066406 8.515625 8.125 8.507812 8.1875 C 8.507812 8.402344 8.347656 8.425781 8.28125 8.425781 C 8.203125 8.429688 8.128906 8.398438 8.09375 8.34375 C 8.058594 8.28125 8.046875 8.210938 8.054688 8.144531 C 8.058594 8.039062 8.09375 7.9375 8.15625 7.847656 C 8.257812 7.714844 8.382812 7.597656 8.527344 7.492188 C 8.660156 7.40625 8.773438 7.300781 8.855469 7.179688 C 8.894531 7.101562 8.917969 7.015625 8.917969 6.929688 C 8.921875 6.839844 8.878906 6.753906 8.804688 6.683594 C 8.742188 6.613281 8.636719 6.574219 8.53125 6.578125 C 8.402344 6.574219 8.273438 6.605469 8.175781 6.667969 C 8.09375 6.722656 8.050781 6.800781 8.054688 6.882812 C 8.050781 6.925781 8.066406 6.96875 8.09375 7.003906 C 8.113281 7.027344 8.128906 7.027344 8.136719 7.027344 C 8.230469 7.003906 8.332031 7.015625 8.40625 7.066406 C 8.46875 7.097656 8.507812 7.148438 8.507812 7.207031 C 8.511719 7.28125 8.457031 7.351562 8.371094 7.390625 C 8.289062 7.425781 8.199219 7.445312 8.105469 7.445312 C 7.953125 7.445312 7.808594 7.390625 7.71875 7.296875 C 7.605469 7.1875 7.546875 7.050781 7.558594 6.914062 C 7.558594 6.730469 7.652344 6.558594 7.824219 6.433594 C 8.011719 6.300781 8.261719 6.234375 8.515625 6.246094 C 8.792969 6.238281 9.0625 6.3125 9.273438 6.449219 C 9.484375 6.574219 9.605469 6.769531 9.601562 6.976562 C 9.601562 7.085938 9.566406 7.195312 9.496094 7.289062 Z M 9.507812 7.289062 "/>
<path style=" stroke:none;fill-rule:nonzero;fill:rgb(13.72549%,12.156863%,12.54902%);fill-opacity:1;" d="M 17.535156 16.363281 C 16.769531 16.363281 16.082031 16.714844 15.789062 17.253906 C 15.5 17.792969 15.660156 18.410156 16.203125 18.824219 C 16.746094 19.234375 17.558594 19.355469 18.261719 19.132812 C 18.96875 18.90625 19.425781 18.378906 19.421875 17.796875 C 19.417969 17.003906 18.574219 16.363281 17.535156 16.363281 Z M 17.535156 18.878906 C 17.476562 18.921875 17.402344 18.945312 17.320312 18.941406 C 17.242188 18.945312 17.164062 18.921875 17.109375 18.878906 C 17.046875 18.835938 17.011719 18.777344 17.011719 18.714844 C 17.011719 18.652344 17.046875 18.589844 17.109375 18.550781 C 17.226562 18.472656 17.398438 18.472656 17.519531 18.550781 C 17.585938 18.597656 17.621094 18.664062 17.617188 18.734375 C 17.613281 18.789062 17.582031 18.84375 17.527344 18.878906 Z M 18.3125 17.484375 C 18.261719 17.5625 18.191406 17.632812 18.109375 17.691406 C 18.003906 17.765625 17.898438 17.835938 17.785156 17.898438 C 17.683594 17.957031 17.597656 18.023438 17.527344 18.101562 C 17.488281 18.144531 17.46875 18.195312 17.460938 18.246094 C 17.460938 18.429688 17.324219 18.453125 17.269531 18.453125 C 17.199219 18.457031 17.136719 18.425781 17.109375 18.378906 C 17.078125 18.328125 17.066406 18.265625 17.074219 18.210938 C 17.078125 18.121094 17.105469 18.035156 17.160156 17.960938 C 17.246094 17.839844 17.359375 17.734375 17.488281 17.648438 C 17.601562 17.574219 17.695312 17.484375 17.765625 17.382812 C 17.800781 17.316406 17.820312 17.246094 17.820312 17.171875 C 17.824219 17.09375 17.789062 17.019531 17.722656 16.957031 C 17.667969 16.898438 17.582031 16.867188 17.488281 16.871094 C 17.378906 16.863281 17.269531 16.890625 17.1875 16.945312 C 17.121094 16.992188 17.085938 17.0625 17.089844 17.132812 C 17.085938 17.167969 17.097656 17.199219 17.117188 17.230469 C 17.117188 17.253906 17.148438 17.253906 17.15625 17.253906 C 17.234375 17.230469 17.324219 17.242188 17.386719 17.28125 C 17.4375 17.308594 17.472656 17.351562 17.472656 17.402344 C 17.472656 17.464844 17.425781 17.527344 17.355469 17.558594 C 17.285156 17.589844 17.207031 17.609375 17.128906 17.605469 C 17 17.605469 16.878906 17.558594 16.800781 17.480469 C 16.710938 17.394531 16.664062 17.28125 16.667969 17.167969 C 16.664062 17.015625 16.746094 16.871094 16.890625 16.761719 C 17.046875 16.644531 17.257812 16.585938 17.476562 16.589844 C 17.714844 16.585938 17.941406 16.648438 18.125 16.761719 C 18.304688 16.871094 18.40625 17.035156 18.402344 17.210938 C 18.40625 17.304688 18.375 17.402344 18.3125 17.484375 Z M 18.3125 17.484375 "/>
<path style=" stroke:none;fill-rule:nonzero;fill:rgb(13.72549%,12.156863%,12.54902%);fill-opacity:1;" d="M 4.769531 10.945312 C 3.71875 11.757812 3.082031 12.835938 2.976562 13.976562 L 2.976562 3.121094 C 2.976562 2.941406 3.070312 2.765625 3.238281 2.636719 C 3.40625 2.507812 3.636719 2.433594 3.875 2.433594 L 7.378906 2.433594 L 7.378906 3.800781 L 4.757812 3.800781 Z M 4.769531 10.945312 "/>
<path style=" stroke:none;fill-rule:nonzero;fill:rgb(13.72549%,12.156863%,12.54902%);fill-opacity:1;" d="M 24.988281 3.121094 L 24.988281 24.320312 C 24.984375 24.695312 24.582031 25 24.089844 25 L 3.875 25 C 3.378906 25 2.980469 24.695312 2.976562 24.320312 L 2.976562 20.171875 L 4.769531 18.886719 L 4.769531 23.636719 L 23.199219 23.636719 L 23.199219 3.800781 L 20.410156 3.800781 L 20.410156 2.433594 L 24.09375 2.433594 C 24.589844 2.4375 24.988281 2.746094 24.988281 3.121094 Z M 24.988281 3.121094 "/>
<path style=" stroke:none;fill-rule:nonzero;fill:rgb(13.72549%,12.156863%,12.54902%);fill-opacity:1;" d="M 2.976562 14.621094 L 2.976562 17.921875 L 4.136719 17.089844 C 3.453125 16.367188 3.050781 15.511719 2.976562 14.621094 Z M 2.976562 14.621094 "/>
<path style=" stroke:none;fill-rule:nonzero;fill:rgb(13.72549%,12.156863%,12.54902%);fill-opacity:1;" d="M 9.253906 9.777344 C 6.976562 9.777344 4.898438 10.773438 3.910156 12.339844 C 2.921875 13.90625 3.195312 15.765625 4.621094 17.121094 L 0.234375 20.265625 C 0.0273438 20.421875 -0.0390625 20.65625 0.0703125 20.859375 C 0.175781 21.066406 0.4375 21.199219 0.726562 21.203125 C 0.914062 21.210938 1.097656 21.160156 1.238281 21.0625 L 5.660156 17.886719 C 7.714844 19.085938 10.550781 19.128906 12.667969 18 C 14.789062 16.867188 15.699219 14.816406 14.925781 12.9375 C 14.148438 11.054688 11.863281 9.773438 9.273438 9.769531 Z M 9.253906 17.875 C 8.144531 17.875 7.074219 17.570312 6.230469 17.023438 C 6.21875 17.003906 6.207031 16.988281 6.199219 16.96875 C 6.074219 16.886719 5.957031 16.800781 5.847656 16.707031 L 5.773438 16.683594 C 4.304688 15.429688 4.183594 13.5625 5.488281 12.203125 C 6.789062 10.847656 9.160156 10.367188 11.171875 11.054688 C 13.1875 11.742188 14.296875 13.410156 13.832031 15.058594 C 13.371094 16.703125 11.460938 17.878906 9.253906 17.875 Z M 9.253906 17.875 "/>
</g>
</svg>
