<?xml version="1.0" encoding="UTF-8"?>
<svg xmlns="http://www.w3.org/2000/svg" xmlns:xlink="http://www.w3.org/1999/xlink" width="25px" height="25px" viewBox="0 0 25 25" version="1.1">
<g id="surface1">
<path style=" stroke:none;fill-rule:nonzero;fill:rgb(13.72549%,12.156863%,12.54902%);fill-opacity:1;" d="M 9.980469 8.582031 L 19.894531 8.582031 L 19.894531 7.523438 L 9.980469 7.523438 Z M 9.980469 8.582031 "/>
<path style=" stroke:none;fill-rule:nonzero;fill:rgb(13.72549%,12.156863%,12.54902%);fill-opacity:1;" d="M 3.101562 8.582031 L 9.378906 8.582031 L 9.378906 7.523438 L 3.101562 7.523438 Z M 3.101562 8.582031 "/>
<path style=" stroke:none;fill-rule:nonzero;fill:rgb(13.72549%,12.156863%,12.54902%);fill-opacity:1;" d="M 22.308594 7.523438 L 20.464844 7.523438 L 20.464844 8.582031 L 22.308594 8.582031 Z M 22.308594 7.523438 "/>
<path style=" stroke:none;fill-rule:nonzero;fill:rgb(13.72549%,12.156863%,12.54902%);fill-opacity:1;" d="M 5.519531 10.4375 L 15.425781 10.4375 L 15.425781 9.378906 L 5.519531 9.378906 Z M 5.519531 10.4375 "/>
<path style=" stroke:none;fill-rule:nonzero;fill:rgb(13.72549%,12.156863%,12.54902%);fill-opacity:1;" d="M 16.027344 10.4375 L 22.308594 10.4375 L 22.308594 9.378906 L 16.027344 9.378906 Z M 16.027344 10.4375 "/>
<path style=" stroke:none;fill-rule:nonzero;fill:rgb(13.72549%,12.156863%,12.54902%);fill-opacity:1;" d="M 3.101562 10.4375 L 4.945312 10.4375 L 4.945312 9.378906 L 3.101562 9.378906 Z M 3.101562 10.4375 "/>
<path style=" stroke:none;fill-rule:nonzero;fill:rgb(13.72549%,12.156863%,12.54902%);fill-opacity:1;" d="M 19.894531 19.734375 L 9.980469 19.734375 L 9.980469 20.792969 L 19.894531 20.792969 Z M 19.894531 19.734375 "/>
<path style=" stroke:none;fill-rule:nonzero;fill:rgb(13.72549%,12.156863%,12.54902%);fill-opacity:1;" d="M 9.378906 19.734375 L 3.101562 19.734375 L 3.101562 20.792969 L 9.378906 20.792969 Z M 9.378906 19.734375 "/>
<path style=" stroke:none;fill-rule:nonzero;fill:rgb(13.72549%,12.156863%,12.54902%);fill-opacity:1;" d="M 22.308594 19.734375 L 20.464844 19.734375 L 20.464844 20.792969 L 22.308594 20.792969 Z M 22.308594 19.734375 "/>
<path style=" stroke:none;fill-rule:nonzero;fill:rgb(13.72549%,12.156863%,12.54902%);fill-opacity:1;" d="M 15.425781 21.589844 L 5.519531 21.589844 L 5.519531 22.648438 L 15.425781 22.648438 Z M 15.425781 21.589844 "/>
<path style=" stroke:none;fill-rule:nonzero;fill:rgb(13.72549%,12.156863%,12.54902%);fill-opacity:1;" d="M 3.101562 22.648438 L 4.945312 22.648438 L 4.945312 21.589844 L 3.101562 21.589844 Z M 3.101562 22.648438 "/>
<path style=" stroke:none;fill-rule:nonzero;fill:rgb(13.72549%,12.156863%,12.54902%);fill-opacity:1;" d="M 19.894531 11.390625 L 9.980469 11.390625 L 9.980469 12.449219 L 19.894531 12.449219 Z M 19.894531 11.390625 "/>
<path style=" stroke:none;fill-rule:nonzero;fill:rgb(13.72549%,12.156863%,12.54902%);fill-opacity:1;" d="M 3.101562 12.449219 L 9.378906 12.449219 L 9.378906 11.390625 L 3.101562 11.390625 Z M 3.101562 12.449219 "/>
<path style=" stroke:none;fill-rule:nonzero;fill:rgb(13.72549%,12.156863%,12.54902%);fill-opacity:1;" d="M 22.308594 11.390625 L 20.464844 11.390625 L 20.464844 12.449219 L 22.308594 12.449219 Z M 22.308594 11.390625 "/>
<path style=" stroke:none;fill-rule:nonzero;fill:rgb(13.72549%,12.156863%,12.54902%);fill-opacity:1;" d="M 5.519531 14.300781 L 15.425781 14.300781 L 15.425781 13.242188 L 5.519531 13.242188 Z M 5.519531 14.300781 "/>
<path style=" stroke:none;fill-rule:nonzero;fill:rgb(13.72549%,12.156863%,12.54902%);fill-opacity:1;" d="M 22.308594 15.097656 L 3.101562 15.097656 L 3.101562 16.152344 L 22.308594 16.152344 Z M 22.308594 15.097656 "/>
<path style=" stroke:none;fill-rule:nonzero;fill:rgb(13.72549%,12.156863%,12.54902%);fill-opacity:1;" d="M 15.425781 17.113281 L 3.105469 17.113281 L 3.105469 18.167969 L 15.425781 18.167969 Z M 15.425781 17.113281 "/>
<path style=" stroke:none;fill-rule:nonzero;fill:rgb(13.72549%,12.156863%,12.54902%);fill-opacity:1;" d="M 22.308594 13.242188 L 16.027344 13.242188 L 16.027344 14.300781 L 22.308594 14.300781 Z M 22.308594 13.242188 "/>
<path style=" stroke:none;fill-rule:nonzero;fill:rgb(13.72549%,12.156863%,12.54902%);fill-opacity:1;" d="M 3.101562 14.300781 L 4.945312 14.300781 L 4.945312 13.242188 L 3.101562 13.242188 Z M 3.101562 14.300781 "/>
<path style=" stroke:none;fill-rule:nonzero;fill:rgb(13.72549%,12.156863%,12.54902%);fill-opacity:1;" d="M 24.996094 2.71875 L 17.714844 2.71875 C 17.710938 2.839844 17.675781 2.960938 17.613281 3.074219 L 17.613281 3.121094 C 17.246094 3.507812 16.601562 3.738281 15.914062 3.726562 L 23.519531 3.726562 C 23.519531 4.816406 23.519531 6.402344 23.519531 6.6875 L 23.519531 10.132812 C 23.519531 11.28125 23.519531 12.433594 23.519531 13.582031 C 23.519531 14.734375 23.519531 15.886719 23.519531 17.035156 L 23.519531 23.839844 C 23.519531 23.886719 23.519531 23.933594 23.5 23.984375 L 1.496094 23.984375 C 1.496094 23.933594 1.476562 23.886719 1.476562 23.839844 L 1.476562 17.035156 C 1.476562 15.886719 1.476562 14.734375 1.476562 13.582031 C 1.476562 12.433594 1.476562 11.28125 1.476562 10.132812 L 1.476562 6.695312 C 1.476562 6.410156 1.476562 4.824219 1.476562 3.734375 L 13.121094 3.734375 C 13.171875 3.675781 13.21875 3.617188 13.273438 3.5625 C 13.320312 3.503906 13.375 3.453125 13.441406 3.40625 C 13.554688 3.320312 13.699219 3.253906 13.863281 3.214844 C 13.640625 3.070312 13.457031 2.90625 13.316406 2.71875 L 0 2.71875 C 0 3.328125 0 6.644531 0 7.25 C 0 10.242188 0 13.238281 0 16.234375 C 0 19.082031 0 21.933594 0 24.78125 L 0 24.976562 L 25 24.976562 L 25 24.78125 C 25 21.933594 25 19.082031 25 16.234375 C 25 13.242188 25 10.25 25 7.257812 C 25 6.644531 25 3.328125 24.996094 2.71875 Z M 24.996094 2.71875 "/>
<path style=" stroke:none;fill-rule:nonzero;fill:rgb(13.72549%,12.156863%,12.54902%);fill-opacity:1;" d="M 14.320312 3.03125 C 14.035156 3.359375 13.730469 3.714844 13.71875 3.734375 C 13.496094 3.992188 13.28125 4.230469 13.070312 4.480469 C 13.039062 4.515625 13.011719 4.550781 12.992188 4.589844 C 12.917969 4.859375 12.878906 5.136719 12.871094 5.410156 C 13.210938 5.257812 13.53125 5.085938 13.828125 4.894531 C 13.914062 4.816406 13.988281 4.726562 14.058594 4.636719 L 15.160156 3.347656 C 15.789062 3.425781 16.738281 3.394531 17.125 2.945312 C 17.226562 2.765625 17.226562 2.566406 17.125 2.382812 C 17.097656 2.328125 17.0625 2.277344 17.023438 2.222656 C 16.933594 2.109375 16.914062 1.976562 16.972656 1.855469 C 17.027344 1.730469 17.15625 1.628906 17.328125 1.570312 C 17.75 1.4375 18.007812 1.144531 17.984375 0.832031 C 17.992188 0.511719 17.703125 0.21875 17.257812 0.101562 C 16.84375 -0.0351562 16.34375 0.0117188 15.996094 0.214844 C 15.691406 0.382812 15.523438 0.640625 15.546875 0.90625 C 15.566406 1.125 15.355469 1.320312 15.039062 1.375 C 14.921875 1.394531 14.804688 1.410156 14.683594 1.417969 C 14.484375 1.433594 14.289062 1.476562 14.117188 1.546875 C 13.957031 1.605469 13.824219 1.695312 13.730469 1.804688 L 13.703125 1.847656 C 13.703125 1.847656 13.703125 1.871094 13.683594 1.882812 C 13.664062 1.914062 13.652344 1.949219 13.644531 1.984375 C 13.644531 1.992188 13.644531 1.996094 13.644531 2.003906 C 13.585938 2.238281 13.632812 2.621094 14.320312 3.03125 Z M 14.320312 3.03125 "/>
</g>
</svg>
