<?xml version="1.0" encoding="UTF-8"?>
<svg xmlns="http://www.w3.org/2000/svg" xmlns:xlink="http://www.w3.org/1999/xlink" width="25px" height="25px" viewBox="0 0 25 25" version="1.1">
<g id="surface1">
<path style=" stroke:none;fill-rule:nonzero;fill:rgb(0%,0%,0%);fill-opacity:1;" d="M 23.46875 0 L 1.53125 0 C 0.6875 0 0 0.6875 0 1.53125 L 0 23.46875 C 0 24.3125 0.6875 25 1.53125 25 L 23.46875 25 C 24.3125 25 25 24.3125 25 23.46875 L 25 1.53125 C 25 0.6875 24.3125 0 23.46875 0 Z M 23.980469 23.46875 C 23.980469 23.75 23.75 23.980469 23.46875 23.980469 L 1.53125 23.980469 C 1.25 23.980469 1.019531 23.75 1.019531 23.46875 L 1.019531 1.53125 C 1.019531 1.25 1.25 1.019531 1.53125 1.019531 L 23.46875 1.019531 C 23.75 1.019531 23.980469 1.25 23.980469 1.53125 Z M 23.980469 23.46875 "/>
<path style=" stroke:none;fill-rule:nonzero;fill:rgb(0%,0%,0%);fill-opacity:1;" d="M 17.601562 9.183594 L 15.050781 9.183594 L 15.050781 6.632812 C 15.054688 6.632812 15.058594 6.632812 15.0625 6.632812 L 17.09375 6.632812 C 17.375 6.632812 17.601562 6.402344 17.601562 6.121094 L 17.601562 2.550781 C 17.601562 2.269531 17.375 2.039062 17.09375 2.039062 L 14.03125 2.039062 C 11.925781 2.039062 10.921875 3.164062 10.449219 4.109375 C 9.953125 5.097656 9.949219 6.082031 9.949219 6.121094 L 9.949219 9.183594 L 7.398438 9.183594 C 7.117188 9.183594 6.886719 9.410156 6.886719 9.695312 L 6.886719 13.777344 C 6.886719 14.058594 7.117188 14.285156 7.398438 14.285156 L 9.4375 14.285156 L 9.4375 22.195312 C 9.4375 22.476562 9.667969 22.703125 9.949219 22.703125 L 14.539062 22.703125 C 14.824219 22.703125 15.050781 22.476562 15.050781 22.195312 L 15.050781 13.777344 L 17.09375 13.777344 C 17.347656 13.777344 17.5625 13.589844 17.597656 13.335938 L 18.105469 9.765625 C 18.128906 9.621094 18.085938 9.472656 17.988281 9.359375 C 17.890625 9.246094 17.75 9.183594 17.601562 9.183594 Z M 16.648438 12.753906 L 14.539062 12.753906 C 14.257812 12.753906 14.03125 12.984375 14.03125 13.265625 L 14.03125 21.683594 L 10.460938 21.683594 L 10.460938 13.777344 C 10.460938 13.492188 10.230469 13.265625 9.949219 13.265625 L 7.90625 13.265625 L 7.90625 10.203125 L 10.460938 10.203125 C 10.742188 10.203125 10.96875 9.976562 10.96875 9.695312 L 10.96875 6.125 C 10.96875 6.117188 10.980469 5.3125 11.375 4.535156 C 11.878906 3.558594 12.769531 3.0625 14.03125 3.0625 L 16.582031 3.0625 L 16.582031 5.613281 L 15.050781 5.613281 C 14.554688 5.613281 14.03125 5.96875 14.03125 6.632812 L 14.03125 9.695312 C 14.03125 9.976562 14.257812 10.203125 14.539062 10.203125 L 17.015625 10.203125 Z M 16.648438 12.753906 "/>
</g>
</svg>
