<?xml version="1.0" encoding="UTF-8"?>
<svg xmlns="http://www.w3.org/2000/svg" xmlns:xlink="http://www.w3.org/1999/xlink" width="25px" height="25px" viewBox="0 0 25 25" version="1.1">
<g id="surface1">
<path style=" stroke:none;fill-rule:nonzero;fill:rgb(13.72549%,12.156863%,12.54902%);fill-opacity:1;" d="M 11.921875 21.140625 L 11.757812 21.183594 L 11.625 21.21875 L 11.835938 22.125 L 11.988281 22.082031 C 13.210938 21.789062 15.457031 21.199219 16.371094 20.957031 C 16.625 20.886719 16.792969 20.675781 16.785156 20.441406 C 16.773438 20.207031 16.589844 20.007812 16.328125 19.957031 L 11.082031 18.882812 L 11.300781 19.828125 L 11.386719 19.851562 C 11.476562 19.875 11.570312 19.894531 11.664062 19.90625 L 14.921875 20.441406 L 13.847656 20.683594 C 13.210938 20.839844 12.5625 20.988281 11.921875 21.140625 Z M 11.921875 21.140625 "/>
<path style=" stroke:none;fill-rule:nonzero;fill:rgb(13.72549%,12.156863%,12.54902%);fill-opacity:1;" d="M 10.339844 14.769531 L 11.25 18.726562 L 20.617188 18.550781 L 20.210938 17.710938 L 17.664062 12.699219 L 17.257812 12.023438 C 16.976562 11.441406 16.300781 11.082031 15.585938 11.140625 C 15.285156 11.140625 14.984375 11.140625 14.699219 11.140625 C 14.492188 10.683594 14.648438 10.164062 15.082031 9.859375 C 15.511719 9.46875 15.867188 9.023438 16.148438 8.539062 C 16.265625 8.300781 16.476562 8.105469 16.746094 7.988281 C 17.132812 7.851562 17.425781 7.558594 17.539062 7.203125 C 17.652344 6.847656 17.574219 6.464844 17.324219 6.167969 C 17.148438 5.945312 17.09375 5.664062 17.175781 5.402344 C 17.394531 4.324219 17.273438 3.210938 16.824219 2.183594 C 16.402344 1.125 15.332031 0.371094 14.070312 0.238281 C 13.121094 0.148438 12.167969 0.136719 11.21875 0.199219 C 8.96875 0.304688 7.960938 1.78125 7.785156 3.378906 C 7.699219 4.210938 7.785156 5.058594 7.785156 6.011719 C 7.078125 6.808594 7.261719 7.503906 8.445312 8.078125 C 8.601562 8.15625 8.695312 8.339844 8.804688 8.480469 C 9.117188 8.96875 9.488281 9.429688 9.910156 9.851562 C 10.367188 10.144531 10.539062 10.679688 10.320312 11.140625 C 10.027344 11.140625 9.746094 11.15625 9.46875 11.140625 C 8.699219 11.058594 7.964844 11.449219 7.683594 12.089844 C 7.332031 12.71875 6.933594 13.335938 6.570312 13.960938 C 6.542969 14.007812 6.523438 14.058594 6.503906 14.109375 L 9.417969 14.109375 C 9.863281 14.109375 10.246094 14.382812 10.339844 14.769531 Z M 16.785156 6.359375 C 17.21875 6.910156 16.875 7.179688 16.566406 7.4375 C 16.628906 7.132812 16.695312 6.8125 16.785156 6.359375 Z M 8.234375 6.507812 C 8.300781 6.792969 8.367188 7.074219 8.433594 7.355469 C 7.964844 7.148438 7.925781 6.859375 8.222656 6.507812 Z M 11.765625 18.105469 C 11.574219 16.8125 11.914062 15.546875 11.875 14.226562 L 13.117188 14.226562 C 13.199219 15.5 13.28125 16.75 13.367188 18.105469 Z M 11.601562 12.089844 L 13.296875 12.089844 C 13.445312 12.570312 13.214844 12.992188 13.070312 13.449219 L 11.894531 13.449219 C 11.808594 13.011719 11.699219 12.582031 11.589844 12.089844 Z M 10.996094 11.195312 C 10.996094 11.082031 10.972656 10.949219 10.976562 10.816406 C 10.988281 10.707031 11.015625 10.601562 11.046875 10.496094 C 11.992188 10.777344 13.015625 10.777344 13.960938 10.496094 C 13.960938 10.765625 13.992188 10.960938 14.003906 11.144531 C 13.054688 11.527344 11.964844 11.546875 10.996094 11.195312 Z M 9.773438 8.945312 C 8.886719 7.742188 8.730469 6.355469 8.800781 4.953125 C 8.824219 4.480469 9.1875 4.277344 9.769531 4.28125 C 10.046875 4.28125 10.324219 4.28125 10.582031 4.253906 C 10.949219 4.179688 11.324219 4.1875 11.683594 4.28125 C 12.046875 4.394531 12.566406 4.1875 13.003906 4.070312 C 13.265625 3.96875 13.515625 3.839844 13.75 3.691406 C 14.210938 4.546875 14.941406 5.265625 15.855469 5.765625 C 16.082031 5.886719 16.195312 6.121094 16.136719 6.351562 C 16.089844 7.261719 15.78125 8.148438 15.25 8.929688 C 14.636719 9.730469 13.613281 10.214844 12.519531 10.21875 C 11.421875 10.21875 10.394531 9.746094 9.773438 8.945312 Z M 9.773438 8.945312 "/>
<path style=" stroke:none;fill-rule:nonzero;fill:rgb(13.72549%,12.156863%,12.54902%);fill-opacity:1;" d="M 24.738281 22.613281 C 24.433594 22.171875 22.601562 18.882812 22.582031 18.839844 L 22.53125 18.75 L 21.640625 18.882812 L 21.734375 19.046875 C 21.734375 19.082031 23.339844 21.929688 23.769531 22.722656 L 1.222656 22.722656 L 1.957031 21.402344 L 1.753906 21.140625 C 1.851562 21.140625 1.976562 21.164062 2.128906 21.179688 C 3.839844 21.34375 5.550781 21.519531 7.261719 21.683594 C 8.355469 21.792969 9.457031 21.890625 10.625 21.996094 C 11.164062 21.996094 11.296875 21.914062 11.238281 21.4375 L 9.652344 14.773438 C 9.476562 14.726562 9.296875 14.707031 9.113281 14.710938 L 2.628906 14.5625 C 1.992188 14.5625 1.347656 14.496094 0.703125 14.488281 C 0.183594 14.488281 0.015625 14.636719 0.0976562 15.050781 C 0.472656 16.886719 0.859375 18.714844 1.253906 20.535156 C 1.347656 20.96875 1.402344 21.074219 1.71875 21.128906 L 1.640625 21.128906 C 1.589844 21.140625 1.535156 21.148438 1.480469 21.15625 C 1.316406 21.179688 1.140625 21.207031 1.074219 21.328125 C 1.011719 21.449219 0.871094 21.652344 0.761719 21.808594 C 0.339844 22.449219 -0.0976562 23.089844 0.0195312 23.921875 C 0.109375 24.574219 0.269531 24.792969 1.050781 24.828125 L 23.71875 24.828125 C 23.894531 24.832031 24.074219 24.824219 24.25 24.804688 C 24.625 24.792969 24.929688 24.535156 24.960938 24.207031 L 24.960938 24.054688 C 25.058594 23.5625 24.980469 23.0625 24.738281 22.613281 Z M 24.117188 23.921875 C 22.300781 24.054688 3.226562 24.109375 0.929688 23.988281 L 0.929688 23.5625 L 24.078125 23.5625 Z M 24.117188 23.921875 "/>
</g>
</svg>
