<?xml version="1.0" encoding="UTF-8"?>
<svg xmlns="http://www.w3.org/2000/svg" xmlns:xlink="http://www.w3.org/1999/xlink" width="25px" height="25px" viewBox="0 0 25 25" version="1.1">
<g id="surface1">
<path style=" stroke:none;fill-rule:nonzero;fill:rgb(13.72549%,12.156863%,12.54902%);fill-opacity:1;" d="M 19.703125 21.574219 L 18.394531 21.574219 L 18.929688 23.019531 L 7.855469 23.019531 L 1.609375 6.027344 L 4.070312 6.027344 L 3.339844 4.046875 L 0.601562 4.046875 C 0.398438 4.046875 0.214844 4.25 0.121094 4.570312 C 0.0234375 4.894531 0.0351562 5.285156 0.144531 5.589844 L 7.125 24.558594 C 7.222656 24.84375 7.394531 25.011719 7.578125 25.011719 L 19.945312 25.011719 C 20.148438 25.011719 20.335938 24.804688 20.425781 24.472656 C 20.523438 24.152344 20.511719 23.761719 20.398438 23.460938 Z M 19.703125 21.574219 "/>
<path style=" stroke:none;fill-rule:nonzero;fill:rgb(13.72549%,12.156863%,12.54902%);fill-opacity:1;" d="M 6.523438 3.90625 L 7.15625 3.90625 L 7.15625 4.496094 L 6.523438 4.496094 Z M 6.523438 3.90625 "/>
<path style=" stroke:none;fill-rule:nonzero;fill:rgb(13.72549%,12.156863%,12.54902%);fill-opacity:1;" d="M 10.039062 3.90625 L 11.222656 3.90625 L 11.222656 4.496094 L 10.039062 4.496094 Z M 10.039062 3.90625 "/>
<path style=" stroke:none;fill-rule:nonzero;fill:rgb(13.72549%,12.156863%,12.54902%);fill-opacity:1;" d="M 12.070312 3.90625 L 13.253906 3.90625 L 13.253906 4.496094 L 12.070312 4.496094 Z M 12.070312 3.90625 "/>
<path style=" stroke:none;fill-rule:nonzero;fill:rgb(13.72549%,12.156863%,12.54902%);fill-opacity:1;" d="M 8.003906 3.90625 L 9.191406 3.90625 L 9.191406 4.496094 L 8.003906 4.496094 Z M 8.003906 3.90625 "/>
<path style=" stroke:none;fill-rule:nonzero;fill:rgb(13.72549%,12.156863%,12.54902%);fill-opacity:1;" d="M 14.101562 3.90625 L 14.734375 3.90625 L 14.734375 4.496094 L 14.101562 4.496094 Z M 14.101562 3.90625 "/>
<path style=" stroke:none;fill-rule:nonzero;fill:rgb(13.72549%,12.156863%,12.54902%);fill-opacity:1;" d="M 7.390625 5.957031 L 8.019531 5.957031 L 8.019531 6.542969 L 7.390625 6.542969 Z M 7.390625 5.957031 "/>
<path style=" stroke:none;fill-rule:nonzero;fill:rgb(13.72549%,12.156863%,12.54902%);fill-opacity:1;" d="M 10.902344 5.957031 L 12.089844 5.957031 L 12.089844 6.542969 L 10.902344 6.542969 Z M 10.902344 5.957031 "/>
<path style=" stroke:none;fill-rule:nonzero;fill:rgb(13.72549%,12.156863%,12.54902%);fill-opacity:1;" d="M 12.9375 5.957031 L 14.121094 5.957031 L 14.121094 6.542969 L 12.9375 6.542969 Z M 12.9375 5.957031 "/>
<path style=" stroke:none;fill-rule:nonzero;fill:rgb(13.72549%,12.156863%,12.54902%);fill-opacity:1;" d="M 8.867188 5.957031 L 10.054688 5.957031 L 10.054688 6.542969 L 8.867188 6.542969 Z M 8.867188 5.957031 "/>
<path style=" stroke:none;fill-rule:nonzero;fill:rgb(13.72549%,12.156863%,12.54902%);fill-opacity:1;" d="M 14.96875 5.957031 L 15.597656 5.957031 L 15.597656 6.542969 L 14.96875 6.542969 Z M 14.96875 5.957031 "/>
<path style=" stroke:none;fill-rule:nonzero;fill:rgb(13.72549%,12.156863%,12.54902%);fill-opacity:1;" d="M 7.96875 8.316406 L 8.597656 8.316406 L 8.597656 8.90625 L 7.96875 8.90625 Z M 7.96875 8.316406 "/>
<path style=" stroke:none;fill-rule:nonzero;fill:rgb(13.72549%,12.156863%,12.54902%);fill-opacity:1;" d="M 11.476562 8.316406 L 12.664062 8.316406 L 12.664062 8.90625 L 11.476562 8.90625 Z M 11.476562 8.316406 "/>
<path style=" stroke:none;fill-rule:nonzero;fill:rgb(13.72549%,12.156863%,12.54902%);fill-opacity:1;" d="M 9.445312 8.316406 L 10.628906 8.316406 L 10.628906 8.90625 L 9.445312 8.90625 Z M 9.445312 8.316406 "/>
<path style=" stroke:none;fill-rule:nonzero;fill:rgb(13.72549%,12.156863%,12.54902%);fill-opacity:1;" d="M 13.511719 8.316406 L 14.699219 8.316406 L 14.699219 8.90625 L 13.511719 8.90625 Z M 13.511719 8.316406 "/>
<path style=" stroke:none;fill-rule:nonzero;fill:rgb(13.72549%,12.156863%,12.54902%);fill-opacity:1;" d="M 15.546875 8.316406 L 16.175781 8.316406 L 16.175781 8.90625 L 15.546875 8.90625 Z M 15.546875 8.316406 "/>
<path style=" stroke:none;fill-rule:nonzero;fill:rgb(13.72549%,12.156863%,12.54902%);fill-opacity:1;" d="M 9.011719 11.199219 L 9.644531 11.199219 L 9.644531 11.789062 L 9.011719 11.789062 Z M 9.011719 11.199219 "/>
<path style=" stroke:none;fill-rule:nonzero;fill:rgb(13.72549%,12.156863%,12.54902%);fill-opacity:1;" d="M 14.554688 11.199219 L 15.742188 11.199219 L 15.742188 11.789062 L 14.554688 11.789062 Z M 14.554688 11.199219 "/>
<path style=" stroke:none;fill-rule:nonzero;fill:rgb(13.72549%,12.156863%,12.54902%);fill-opacity:1;" d="M 12.523438 11.199219 L 13.707031 11.199219 L 13.707031 11.789062 L 12.523438 11.789062 Z M 12.523438 11.199219 "/>
<path style=" stroke:none;fill-rule:nonzero;fill:rgb(13.72549%,12.156863%,12.54902%);fill-opacity:1;" d="M 10.488281 11.199219 L 11.675781 11.199219 L 11.675781 11.789062 L 10.488281 11.789062 Z M 10.488281 11.199219 "/>
<path style=" stroke:none;fill-rule:nonzero;fill:rgb(13.72549%,12.156863%,12.54902%);fill-opacity:1;" d="M 16.589844 11.199219 L 17.222656 11.199219 L 17.222656 11.789062 L 16.589844 11.789062 Z M 16.589844 11.199219 "/>
<path style=" stroke:none;fill-rule:nonzero;fill:rgb(13.72549%,12.156863%,12.54902%);fill-opacity:1;" d="M 9.84375 13.625 L 10.472656 13.625 L 10.472656 14.214844 L 9.84375 14.214844 Z M 9.84375 13.625 "/>
<path style=" stroke:none;fill-rule:nonzero;fill:rgb(13.72549%,12.156863%,12.54902%);fill-opacity:1;" d="M 11.320312 13.625 L 12.503906 13.625 L 12.503906 14.214844 L 11.320312 14.214844 Z M 11.320312 13.625 "/>
<path style=" stroke:none;fill-rule:nonzero;fill:rgb(13.72549%,12.156863%,12.54902%);fill-opacity:1;" d="M 15.386719 13.625 L 16.574219 13.625 L 16.574219 14.214844 L 15.386719 14.214844 Z M 15.386719 13.625 "/>
<path style=" stroke:none;fill-rule:nonzero;fill:rgb(13.72549%,12.156863%,12.54902%);fill-opacity:1;" d="M 13.351562 13.625 L 14.539062 13.625 L 14.539062 14.214844 L 13.351562 14.214844 Z M 13.351562 13.625 "/>
<path style=" stroke:none;fill-rule:nonzero;fill:rgb(13.72549%,12.156863%,12.54902%);fill-opacity:1;" d="M 10.816406 16.046875 L 11.445312 16.046875 L 11.445312 16.636719 L 10.816406 16.636719 Z M 10.816406 16.046875 "/>
<path style=" stroke:none;fill-rule:nonzero;fill:rgb(13.72549%,12.156863%,12.54902%);fill-opacity:1;" d="M 14.324219 16.046875 L 15.511719 16.046875 L 15.511719 16.636719 L 14.324219 16.636719 Z M 14.324219 16.046875 "/>
<path style=" stroke:none;fill-rule:nonzero;fill:rgb(13.72549%,12.156863%,12.54902%);fill-opacity:1;" d="M 12.289062 16.046875 L 13.476562 16.046875 L 13.476562 16.636719 L 12.289062 16.636719 Z M 12.289062 16.046875 "/>
<path style=" stroke:none;fill-rule:nonzero;fill:rgb(13.72549%,12.156863%,12.54902%);fill-opacity:1;" d="M 22.289062 17.222656 L 20.984375 17.222656 L 21.625 18.964844 L 10.546875 18.964844 L 4.300781 1.980469 L 15.371094 1.980469 L 17.148438 6.796875 C 17.289062 6.320312 17.5625 6.019531 17.859375 6.019531 L 18.171875 6.019531 L 16.113281 0.453125 C 16.015625 0.171875 15.847656 0 15.664062 0 L 3.285156 0 C 3.085938 0 2.902344 0.203125 2.808594 0.523438 C 2.710938 0.847656 2.722656 1.238281 2.832031 1.539062 L 9.8125 20.511719 C 9.914062 20.792969 10.082031 20.964844 10.265625 20.964844 L 22.636719 20.964844 C 22.839844 20.96875 23.023438 20.765625 23.117188 20.441406 C 23.214844 20.121094 23.203125 19.726562 23.089844 19.425781 Z M 22.289062 17.222656 "/>
<path style=" stroke:none;fill-rule:nonzero;fill:rgb(13.72549%,12.156863%,12.54902%);fill-opacity:1;" d="M 21.929688 14.910156 L 21.929688 11.351562 L 20.148438 14.433594 L 18.324219 11.3125 L 18.324219 14.910156 Z M 21.929688 14.910156 "/>
<path style=" stroke:none;fill-rule:nonzero;fill:rgb(13.72549%,12.156863%,12.54902%);fill-opacity:1;" d="M 20.382812 10.542969 L 21.847656 8.359375 L 19.398438 8.359375 Z M 20.382812 10.542969 "/>
<path style=" stroke:none;fill-rule:nonzero;fill:rgb(13.72549%,12.156863%,12.54902%);fill-opacity:1;" d="M 21.929688 14.910156 L 18.324219 14.910156 L 18.324219 11.332031 L 17.394531 9.71875 L 17.394531 15.757812 C 17.398438 15.8125 17.402344 15.867188 17.410156 15.921875 L 17.433594 16 C 17.453125 16.0625 17.476562 16.125 17.496094 16.1875 L 17.519531 16.238281 L 17.519531 16.265625 L 17.535156 16.308594 C 17.570312 16.378906 17.609375 16.4375 17.648438 16.507812 C 17.710938 16.566406 17.777344 16.59375 17.847656 16.597656 L 22.398438 16.597656 C 22.65625 16.59375 22.863281 16.214844 22.863281 15.746094 L 22.863281 9.734375 L 21.929688 11.351562 Z M 21.929688 14.910156 "/>
<path style=" stroke:none;fill-rule:nonzero;fill:rgb(13.72549%,12.156863%,12.54902%);fill-opacity:1;" d="M 18.683594 7.363281 L 18.929688 7.292969 L 19.40625 8.359375 L 21.855469 8.359375 L 22.773438 6.996094 C 22.683594 6.789062 22.550781 6.667969 22.40625 6.667969 L 17.859375 6.667969 C 17.601562 6.667969 17.390625 7.046875 17.390625 7.519531 L 17.390625 8.558594 C 17.632812 7.746094 18.371094 7.449219 18.683594 7.363281 Z M 18.683594 7.363281 "/>
<path style=" stroke:none;fill-rule:nonzero;fill:rgb(13.72549%,12.156863%,12.54902%);fill-opacity:1;" d="M 18.785156 7.957031 L 18.734375 7.957031 C 18.648438 7.984375 17.871094 8.226562 17.691406 8.824219 C 17.644531 8.988281 17.644531 9.179688 17.691406 9.339844 L 20.144531 13.597656 L 24.953125 5.277344 L 24.441406 5.277344 L 20.335938 11.417969 Z M 18.785156 7.957031 "/>
</g>
</svg>
