<?xml version="1.0" encoding="UTF-8"?>
<svg xmlns="http://www.w3.org/2000/svg" xmlns:xlink="http://www.w3.org/1999/xlink" width="25px" height="25px" viewBox="0 0 25 25" version="1.1">
<g id="surface1">
<path style=" stroke:none;fill-rule:nonzero;fill:rgb(0%,0%,0%);fill-opacity:1;" d="M 20.027344 3.316406 L 4.972656 3.316406 C 2.230469 3.316406 0 5.554688 0 8.304688 L 0 16.695312 C 0 19.445312 2.230469 21.683594 4.972656 21.683594 L 20.027344 21.683594 C 22.769531 21.683594 25 19.445312 25 16.695312 L 25 8.304688 C 25 5.554688 22.769531 3.316406 20.027344 3.316406 Z M 23.980469 16.695312 C 23.980469 18.882812 22.207031 20.664062 20.027344 20.664062 L 4.972656 20.664062 C 2.792969 20.664062 1.019531 18.882812 1.019531 16.695312 L 1.019531 8.304688 C 1.019531 6.117188 2.792969 4.335938 4.972656 4.335938 L 20.027344 4.335938 C 22.207031 4.335938 23.980469 6.117188 23.980469 8.304688 Z M 23.980469 16.695312 "/>
<path style=" stroke:none;fill-rule:nonzero;fill:rgb(0%,0%,0%);fill-opacity:1;" d="M 17.019531 12.316406 L 9.953125 8.175781 C 9.792969 8.082031 9.597656 8.082031 9.441406 8.171875 C 9.28125 8.261719 9.183594 8.433594 9.183594 8.617188 L 9.183594 16.894531 C 9.183594 17.078125 9.28125 17.246094 9.441406 17.339844 C 9.519531 17.382812 9.605469 17.40625 9.695312 17.40625 C 9.78125 17.40625 9.871094 17.382812 9.953125 17.335938 L 17.019531 13.195312 C 17.175781 13.105469 17.273438 12.9375 17.273438 12.757812 C 17.273438 12.574219 17.175781 12.40625 17.019531 12.316406 Z M 10.203125 16.003906 L 10.203125 9.503906 L 15.753906 12.753906 Z M 10.203125 16.003906 "/>
</g>
</svg>
